<svg width="218" height="224" viewBox="0 0 218 224" fill="none" xmlns="http://www.w3.org/2000/svg">
<path d="M75.2292 38.9423C72.6619 23.3229 94.7401 17.2305 100.546 31.9561C104.734 42.5752 119.511 43.2394 124.634 33.0386C131.738 18.8933 153.18 26.9417 149.222 42.2678C146.368 53.3199 157.933 62.5432 168.073 57.3018C182.134 50.0335 194.751 69.1484 182.541 79.221C173.735 86.4846 177.67 100.744 188.954 102.464C204.603 104.849 203.574 127.729 187.775 128.701C176.382 129.402 171.184 143.25 179.302 151.275C190.56 162.402 176.28 180.308 162.927 171.808C153.297 165.678 140.952 173.827 142.803 185.09C145.371 200.71 123.292 206.802 117.486 192.076C113.299 181.457 98.5216 180.793 93.3987 190.994C86.2949 205.139 64.8523 197.091 68.8103 181.765C71.6647 170.713 60.0998 161.489 49.9596 166.731C35.898 173.999 23.2813 154.884 35.4919 144.812C44.2974 137.548 40.3625 123.288 29.078 121.569C13.4298 119.184 14.4581 96.3033 30.2572 95.3316C41.6505 94.6309 46.8486 80.782 38.7302 72.7577C27.4724 61.6304 41.753 43.7243 55.1058 52.2247C64.735 58.3546 77.0806 50.2059 75.2292 38.9423Z" fill="#6DB4B8"/>
</svg>
