<svg width="714" height="168" viewBox="0 0 714 168" fill="none" xmlns="http://www.w3.org/2000/svg">
<path d="M345.054 33.6359C314.169 25.9278 283.839 15.7579 252.723 9.32582C226.634 3.9326 200.366 -2.94409 173.999 3.8008C148.74 10.2624 120.36 13.6622 96.6787 25.7781C78.7313 34.9604 58.9464 46.3355 42.7919 59.051C33.9217 66.0329 25.5349 69.5558 15.4706 73.9072C10.605 76.0108 1 81.4477 1 88.8861C1 97.8116 27.493 104.316 33.1809 106.812C44.6162 111.83 54.9751 119.36 66.6576 123.755C80.1384 128.827 94.3833 130.405 108.45 131.858C137.751 134.887 166.109 141.307 195.165 146.346C236.174 153.459 277.183 156.01 318.489 159.115C362.727 162.441 405.819 170.543 450.344 165.254C486.713 160.934 524.685 165.078 559.738 150.275C590.298 137.37 623.233 133.808 653.472 119.703C668.872 112.52 675.995 106.298 681.766 88.8861C686.751 73.8426 689.952 66.575 675.502 56.7182C634.942 29.0493 584.506 31.4259 539.004 31.4259C516.05 31.4259 493.83 36.0843 470.97 37.5648C449.384 38.9628 429.441 34.2257 408.12 31.917C398.255 30.8488 388.782 29.2159 378.855 29.2159C370.96 29.2159 360.373 31.3232 352.83 27.9881C328.787 17.3579 301.43 22.6244 276.589 15.9558C242.373 6.77075 214.283 20.2528 180.802 22.7086C156.267 24.5084 132.643 27.0059 107.91 27.0059C82.5114 27.0059 63.4523 38.5062 40.3082 47.3871C29.5414 51.5185 7.17187 62.4503 10.827 81.1511C12.4623 89.5172 24.8864 90.2925 30.3731 91.5872C35.69 92.8418 42.0723 98.0958 47.4355 100.427C67.1095 108.98 85.9762 121.477 104.454 131.981C115.743 138.399 131 139.177 143.33 139.716C157.254 140.325 170.487 144.005 184.798 144.136C220.364 144.462 253.212 159.606 288.576 159.606C296.458 159.606 299.85 161.881 305.962 163.535C329.001 169.772 354.385 164.475 377.667 164.026C393.846 163.715 409.467 158.953 425.615 157.642C438.319 156.61 450.97 158.241 463.627 156.046C482.551 152.764 501.816 152.031 520.429 147.329C536.449 143.281 551.462 136.243 567.297 131.367C578.025 128.064 589.236 127.735 599.91 124.001C610.611 120.257 620.863 114.259 631.659 110.986C655.197 103.85 679.942 96.7842 702.716 87.1672C712.453 83.055 714.339 76.7524 712.219 64.6988C709.524 49.3795 674.575 50.8787 665.999 49.106C644.976 44.7601 625.079 44.6859 603.797 44.6859C574.28 44.6859 545.364 37.549 516.11 33.6359C499.122 31.3637 482.144 29.1639 465.139 27.1287C456.671 26.1152 449.935 22.5859 440.517 22.5859C427.094 22.5859 413.79 24.5229 400.345 24.7959C393.469 24.9355 386.693 29.8168 380.043 31.917C369.762 35.1638 359.962 38.8738 348.942 40.2659" stroke="#21A537" stroke-linecap="round"/>
</svg>
