<svg width="257" height="260" viewBox="0 0 257 260" fill="none" xmlns="http://www.w3.org/2000/svg">
<g filter="url(#filter0_d)">
<path d="M83.4096 34.5077C71.701 46.7077 88.6855 112.572 90.9821 126.414C84.3315 113.325 26.7664 95.7262 15.4378 98.2036C-18.8377 105.699 33.9873 132.439 43.0232 135.995C52.5157 139.732 86.3528 141.735 90.9821 149.48C96.5058 158.72 79.3296 168.044 73.8539 173.432C57.8598 189.172 33.2872 208.334 33.2872 231.096C33.2872 243.544 43.2313 253.295 56.0045 251.5C67.4058 249.897 76.1726 233.668 83.4096 226.128C95.7865 213.231 110.097 201.831 116.945 184.61C118.08 181.755 129.731 151.737 130.647 158.351C131.272 162.859 133.205 169.404 135.696 173.255C148.707 193.376 158.313 209.562 176.082 226.128C192.12 241.08 230.055 222.22 220.796 200.578C214.902 186.804 210.122 179.784 198.799 168.642C187.707 157.726 172.479 151.966 162.019 141.673C161.023 140.693 187.686 129.982 190.506 128.721C199.099 124.877 210.014 130.264 218.271 126.414C238.667 116.907 267.779 102.389 244.234 79.2191C222.126 57.4633 170.894 91.3527 150.48 101.397C121.386 115.713 150.48 63.2047 150.48 51.6737C150.48 33.9096 143.419 10.641 125.779 2.92592C102.416 -7.29223 96.9407 20.4088 83.4096 34.5077Z" fill="#FE9400"/>
</g>
<path d="M97.8583 137.423C97.8583 145.246 96.1969 152.28 93.5594 157.321C90.8969 162.41 87.3933 165.219 83.7919 165.219C80.1906 165.219 76.6869 162.41 74.0245 157.321C71.3869 152.28 69.7256 145.246 69.7256 137.423C69.7256 129.599 71.3869 122.565 74.0245 117.524C76.6869 112.435 80.1906 109.626 83.7919 109.626C87.3933 109.626 90.8969 112.435 93.5594 117.524C96.1969 122.565 97.8583 129.599 97.8583 137.423Z" fill="white" stroke="black" stroke-width="2"/>
<path d="M84.8204 138.927C84.8204 144.995 83.8975 150.467 82.422 154.403C81.6835 156.373 80.8162 157.932 79.8785 158.99C78.9403 160.049 77.9742 160.561 77.023 160.561C76.0718 160.561 75.1057 160.049 74.1675 158.99C73.2298 157.932 72.3625 156.373 71.624 154.403C70.1485 150.467 69.2256 144.995 69.2256 138.927C69.2256 132.859 70.1485 127.387 71.624 123.451C72.3625 121.481 73.2298 119.921 74.1675 118.863C75.1057 117.805 76.0718 117.292 77.023 117.292C77.9742 117.292 78.9403 117.805 79.8785 118.863C80.8162 119.921 81.6835 121.481 82.422 123.451C83.8975 127.387 84.8204 132.859 84.8204 138.927Z" fill="black" stroke="black"/>
<path d="M86.1934 109.271C89.687 109.056 96.4123 106.563 95.3642 98.311" stroke="black" stroke-width="2"/>
<path d="M89.6875 111.42C93.1811 111.205 99.9064 108.712 98.8583 100.46" stroke="black" stroke-width="2"/>
<path d="M132.357 137.423C132.357 145.246 130.696 152.28 128.058 157.321C125.396 162.41 121.892 165.219 118.291 165.219C114.69 165.219 111.186 162.41 108.523 157.321C105.886 152.28 104.225 145.246 104.225 137.423C104.225 129.599 105.886 122.565 108.523 117.524C111.186 112.435 114.69 109.626 118.291 109.626C121.892 109.626 125.396 112.435 128.058 117.524C130.696 122.565 132.357 129.599 132.357 137.423Z" fill="white" stroke="black" stroke-width="2"/>
<path d="M119.319 138.927C119.319 144.995 118.397 150.467 116.921 154.403C116.183 156.373 115.315 157.932 114.378 158.99C113.439 160.049 112.473 160.561 111.522 160.561C110.571 160.561 109.605 160.049 108.666 158.99C107.729 157.932 106.862 156.373 106.123 154.403C104.647 150.467 103.725 144.995 103.725 138.927C103.725 132.859 104.647 127.387 106.123 123.451C106.862 121.481 107.729 119.921 108.666 118.863C109.605 117.805 110.571 117.292 111.522 117.292C112.473 117.292 113.439 117.805 114.378 118.863C115.315 119.921 116.183 121.481 116.921 123.451C118.397 127.387 119.319 132.859 119.319 138.927Z" fill="black" stroke="black"/>
<path d="M120.693 109.271C124.187 109.056 130.912 106.563 129.864 98.311" stroke="black" stroke-width="2"/>
<path d="M124.188 111.42C127.681 111.205 134.406 108.712 133.358 100.46" stroke="black" stroke-width="2"/>
<defs>
<filter id="filter0_d" x="0.000976562" y="0.713409" width="257" height="259" filterUnits="userSpaceOnUse" color-interpolation-filters="sRGB">
<feFlood flood-opacity="0" result="BackgroundImageFix"/>
<feColorMatrix in="SourceAlpha" type="matrix" values="0 0 0 0 0 0 0 0 0 0 0 0 0 0 0 0 0 0 127 0" result="hardAlpha"/>
<feOffset dy="4"/>
<feGaussianBlur stdDeviation="2"/>
<feColorMatrix type="matrix" values="0 0 0 0 0 0 0 0 0 0 0 0 0 0 0 0 0 0 0.25 0"/>
<feBlend mode="normal" in2="BackgroundImageFix" result="effect1_dropShadow"/>
<feBlend mode="normal" in="SourceGraphic" in2="effect1_dropShadow" result="shape"/>
</filter>
</defs>
</svg>
