<svg width="257" height="260" viewBox="0 0 257 260" fill="none" xmlns="http://www.w3.org/2000/svg">
<g filter="url(#filter0_d)">
<path d="M83.4096 34.5077C71.701 46.7077 88.6855 112.572 90.9821 126.414C84.3315 113.325 26.7664 95.7262 15.4378 98.2036C-18.8377 105.699 33.9873 132.439 43.0232 135.995C52.5157 139.732 86.3528 141.735 90.9821 149.48C96.5058 158.72 79.3296 168.044 73.8539 173.432C57.8598 189.172 33.2872 208.334 33.2872 231.096C33.2872 243.544 43.2313 253.295 56.0045 251.5C67.4058 249.897 76.1726 233.668 83.4096 226.128C95.7865 213.231 110.097 201.831 116.945 184.61C118.08 181.755 129.731 151.737 130.647 158.351C131.272 162.859 133.205 169.404 135.696 173.255C148.707 193.376 158.313 209.562 176.082 226.128C192.12 241.08 230.055 222.22 220.796 200.578C214.902 186.804 210.122 179.784 198.799 168.642C187.707 157.726 172.479 151.966 162.019 141.673C161.023 140.693 187.686 129.982 190.506 128.721C199.099 124.877 210.014 130.264 218.271 126.414C238.667 116.907 267.779 102.389 244.234 79.2191C222.126 57.4633 170.894 91.3527 150.48 101.397C121.386 115.713 150.48 63.2047 150.48 51.6737C150.48 33.9096 143.419 10.641 125.779 2.92592C102.416 -7.29223 96.9407 20.4088 83.4096 34.5077Z" fill="#FE9400"/>
</g>
<defs>
<filter id="filter0_d" x="0.000976562" y="0.713409" width="257" height="259" filterUnits="userSpaceOnUse" color-interpolation-filters="sRGB">
<feFlood flood-opacity="0" result="BackgroundImageFix"/>
<feColorMatrix in="SourceAlpha" type="matrix" values="0 0 0 0 0 0 0 0 0 0 0 0 0 0 0 0 0 0 127 0" result="hardAlpha"/>
<feOffset dy="4"/>
<feGaussianBlur stdDeviation="2"/>
<feColorMatrix type="matrix" values="0 0 0 0 0 0 0 0 0 0 0 0 0 0 0 0 0 0 0.25 0"/>
<feBlend mode="normal" in2="BackgroundImageFix" result="effect1_dropShadow"/>
<feBlend mode="normal" in="SourceGraphic" in2="effect1_dropShadow" result="shape"/>
</filter>
</defs>
</svg>
