<svg width="157" height="160" viewBox="0 0 157 160" fill="none" xmlns="http://www.w3.org/2000/svg">
<path d="M70.4784 13.2701C84.0762 -8.52157 117.868 2.57215 115.45 28.034C114.183 41.3809 123.033 53.6041 136.106 56.7059C160.956 62.6023 160.731 97.8888 135.912 103.376C122.671 106.303 113.58 118.521 114.639 131.934C115.637 144.563 107.66 153.438 97.7041 156.478C87.7395 159.521 75.9617 156.661 69.4191 145.8C62.5163 134.34 47.9664 129.563 35.4556 134.65C23.5978 139.47 12.4339 134.799 6.32083 126.478C0.213091 118.164 -0.752309 106.353 7.74877 96.8426C16.7781 86.7413 16.9603 71.5991 8.15626 61.4343C-8.3455 42.3819 12.9991 14.029 36.4697 23.996C48.8163 29.2391 63.3506 24.6931 70.4784 13.2701Z" stroke="#F4EB6C" stroke-width="3"/>
</svg>
