<svg width="177" height="139" viewBox="0 0 177 139" fill="none" xmlns="http://www.w3.org/2000/svg">
<path d="M59.5 19.9033L67.2731 58.0469L97.7459 33.8237L79.1821 68.0398L118.096 69.0713L81.8817 83.3498L111.029 109.153L74.1086 96.8132L79.8502 135.315L59.5 102.13L39.1498 135.315L44.8914 96.8132L7.97149 109.153L37.1183 83.3498L0.903938 69.0713L39.8179 68.0398L21.2541 33.8237L51.7269 58.0469L59.5 19.9033Z" fill="#E3B0E9"/>
<path d="M151.634 18.1287L143.948 37.7703L164.641 41.8531L144.492 48.0904L154.202 66.8144L136.763 54.9506L128.178 74.2161L126.58 53.1849L106.165 58.4847L121.612 44.123L104.74 31.4661L125.599 34.5886L124.975 13.506L135.54 31.7614L151.634 18.1287Z" fill="#FE026F"/>
</svg>
