<svg width="186" height="165" viewBox="0 0 186 165" fill="none" xmlns="http://www.w3.org/2000/svg">
<path d="M53.5465 115.443L81.0029 87.8476L43.9579 75.8881L82.7287 72.3975L62.038 39.424L93.9819 61.6714L99.3268 23.1125L109.497 60.6881L138.377 34.5859L122.014 69.9077L160.915 68.4758L125.677 85.0163L156.397 108.925L118.771 98.9444L126.936 137.006L104.528 105.175L86.3171 139.58L89.612 100.792L53.5465 115.443Z" fill="#E3B0E9"/>
<path d="M1.04756 39.709L21.6587 35.2317L13.5992 15.7404L29.9505 29.0633L40.1643 10.6095L39.9429 31.7002L60.7389 28.1799L44.1115 41.1567L59.8299 55.2208L39.3173 50.3118L38.1217 71.3697L29.1703 52.2717L11.9611 64.4663L21.3115 45.5604L1.04756 39.709Z" fill="#FE026F"/>
</svg>
