<svg width="494" height="115" viewBox="0 0 494 115" fill="none" xmlns="http://www.w3.org/2000/svg">
<path d="M3.00098 2.71341C17.126 20.3642 32.26 41.9142 54.4767 49.644C70.6663 55.2768 90.107 56.3587 107.104 57.0353C119.695 57.5365 130.89 57.6072 141.746 50.6235C152.839 43.4879 163.733 36.1895 174.97 29.251C190.767 19.4974 206.261 16.5628 224.674 14.9136C248.82 12.7509 273.972 13.7123 295.819 25.5108C319.625 38.368 340.433 57.873 365.723 67.5435C385.908 75.2618 406.861 65.3772 427.919 65.2281C444.189 65.1129 465.902 62.1878 473.813 80.0108C478.766 91.1694 482.235 102.902 491.001 111.713" stroke="#E3B0E9" stroke-width="5" stroke-linecap="round"/>
</svg>
