<svg width="66" height="68" viewBox="0 0 66 68" fill="none" xmlns="http://www.w3.org/2000/svg">
<path d="M25.2566 1.15951C12.8393 3.49959 11.3518 13.6725 12.1602 18.4664C2.26513 21.5865 0.276418 30.4919 0.518943 34.5545C1.29503 44.4999 8.76482 49.0988 12.4027 50.1551C11.8206 60.2955 21.3762 65.7557 26.2267 67.2182C33.9875 68.7783 40.1315 63.4806 42.2334 60.6367C51.3524 64.3419 58.3209 59.4179 60.6654 56.4928C68.0381 46.3525 64.2224 37.9671 61.3929 35.042C67.2136 27.4367 65.5967 19.8477 64.0607 17.0039C57.27 4.71839 47.0031 6.52221 42.7184 8.9598C36.7038 -0.400553 28.5711 -0.140543 25.2566 1.15951Z" fill="#F088B7" stroke="black"/>
</svg>
