<svg width="647" height="225" viewBox="0 0 647 225" fill="none" xmlns="http://www.w3.org/2000/svg">
<rect x="57" y="63.5845" width="577.036" height="141.276" transform="rotate(-6.32635 57 63.5845)" fill="#EA6524"/>
<path d="M61.198 67.4009C41.9329 70.3396 -15.7581 80.2159 7.42429 112.414C18.8832 128.329 38.5341 131.558 56.9686 132.503C61.6036 132.741 82.9492 136.091 82.9492 128.576C82.9492 101.852 35.4174 124.298 26.4566 133.259C16.9617 142.753 6.1956 170.224 24.3419 176.157C33.3944 179.116 49.439 181.734 58.4791 177.214C61.3145 175.796 74.4904 167.887 74.4904 163.771C74.4904 154.842 49.9344 170.701 47.6035 172.078C37.0098 178.338 28.5403 186.002 21.9251 196.397C3.56656 225.246 67.1403 232.244 77.5114 211.502" stroke="white" stroke-width="3" stroke-linecap="round" stroke-dasharray="6 6"/>
</svg>
