<svg width="304" height="300" viewBox="0 0 304 300" fill="none" xmlns="http://www.w3.org/2000/svg">
<path d="M174.102 10.5353C184.956 -3.4756 207.36 3.08606 208.94 20.7384L209.387 25.7229C210.614 39.4357 224.741 48.0644 237.502 42.8954L242.418 40.9039C258.91 34.2236 274.999 51.309 267.341 67.3699L265.727 70.7545C259.736 83.3198 267.743 98.0748 281.543 99.9003L285.846 100.47C303.622 102.821 309.068 125.897 294.22 135.949L291.912 137.511C280.259 145.4 279.836 162.416 291.084 170.873L293.544 172.722C307.93 183.538 301.232 206.407 283.284 207.753L280.215 207.984C266.182 209.037 257.358 223.591 262.915 236.52L264.015 239.081C271.095 255.555 254.06 272.047 237.824 264.437L233.894 262.595C221.289 256.687 206.587 264.792 204.853 278.604L204.386 282.324C202.17 299.979 179.406 305.685 169.123 291.163L166.058 286.834C158.102 275.598 141.553 275.242 133.121 286.126L130.057 290.083C119.203 304.093 96.7987 297.532 95.2185 279.879L94.7723 274.895C93.5448 261.182 79.4178 252.553 66.6574 257.722L61.7409 259.714C45.2493 266.394 29.1602 249.309 36.8182 233.248L38.4319 229.863C44.4231 217.298 36.4164 202.543 22.6161 200.717L18.3133 200.148C0.537239 197.797 -4.9094 174.721 9.93916 164.669L12.247 163.106C23.9003 155.218 24.3225 138.202 13.0747 129.745L10.6149 127.896C-3.77091 117.079 2.92667 94.2109 20.8746 92.8643L23.9435 92.6341C37.9765 91.5813 46.8006 77.0263 41.2442 64.0973L40.1438 61.5368C33.064 45.0628 50.0992 28.5708 66.3352 36.1806L70.2652 38.0226C82.8699 43.9304 97.5716 35.8261 99.3056 22.014L99.7727 18.2936C101.989 0.638954 124.753 -5.06731 135.035 9.45432L138.101 13.7835C146.056 25.0197 162.606 25.3755 171.038 14.4915L174.102 10.5353Z" stroke="#0C0958"/>
</svg>
