<svg width="963" height="538" viewBox="0 0 963 538" fill="none" xmlns="http://www.w3.org/2000/svg">
<path d="M755.408 118.784L756.226 123.721C758.479 137.303 773.213 144.848 785.55 138.737L790.303 136.382C806.247 128.484 823.572 144.315 817.14 160.905L815.784 164.401C810.752 177.38 819.843 191.494 833.741 192.279L838.074 192.524C855.977 193.536 863.138 216.139 849.085 227.276L846.901 229.007C835.872 237.747 836.727 254.747 848.577 262.336L851.168 263.996C866.325 273.704 861.36 297.01 843.564 299.698L840.521 300.158C826.606 302.26 818.898 317.436 825.408 329.912L826.698 332.382C834.993 348.279 819.242 366.002 802.481 359.631L798.424 358.089C785.412 353.143 771.359 362.326 770.666 376.23L770.479 379.975C769.592 397.746 747.32 405.143 735.978 391.433L732.597 387.346C723.821 376.738 707.291 377.624 699.7 389.109L696.94 393.284C687.168 408.069 664.334 403.206 661.435 385.722L660.616 380.785C658.364 367.202 643.63 359.657 631.293 365.768L626.54 368.123C610.596 376.021 593.271 360.19 599.703 343.6L601.058 340.104C606.091 327.125 597 313.012 583.102 312.226L578.769 311.981C560.866 310.969 553.705 288.366 567.758 277.229L569.942 275.498C580.971 266.758 580.116 249.758 568.266 242.169L565.675 240.509C550.518 230.802 555.482 207.495 573.279 204.807L576.322 204.347C590.236 202.245 597.944 187.07 591.434 174.594L590.145 172.123C581.85 156.226 597.601 138.503 614.362 144.874L618.419 146.416C631.431 151.363 645.484 142.179 646.177 128.276L646.364 124.531C647.25 106.759 669.523 99.3625 680.865 113.072L684.246 117.16C693.022 127.768 709.552 126.882 717.143 115.396L719.903 111.221C729.675 96.436 752.508 101.299 755.408 118.784Z" stroke="#0C0958"/>
<rect x="65.2834" y="195.588" width="577.036" height="141.276" transform="rotate(-10.6262 65.2834 195.588)" fill="#EA6524"/>
<path d="M69.7558 199.079C50.7652 203.454 -6.02295 217.628 19.5083 247.997C32.1282 263.008 51.9659 264.755 70.4194 264.316C75.0591 264.205 96.5958 265.945 96.0323 258.451C94.0287 231.803 48.3136 257.749 40.0498 267.356C31.2935 277.536 22.6174 305.737 41.1574 310.292C50.4064 312.565 66.602 313.972 75.2778 308.787C77.999 307.161 90.5447 298.286 90.2361 294.181C89.5667 285.278 66.2689 302.933 64.0478 304.481C53.9532 311.518 46.0822 319.795 40.265 330.657C24.1211 360.802 88.0406 363.013 96.8273 341.552" stroke="white" stroke-width="3" stroke-linecap="round" stroke-dasharray="6 6"/>
</svg>
