<svg width="311" height="289" viewBox="0 0 311 289" fill="none" xmlns="http://www.w3.org/2000/svg">
<path d="M73.3847 192.983C63.7477 186.697 55.4292 178.596 48.9042 169.142C42.3792 159.688 37.7755 149.066 35.3558 137.884C32.9362 126.701 32.7481 115.177 34.8022 103.968C36.8563 92.7595 41.1125 82.0863 47.3277 72.5579C53.5428 63.0294 61.5953 54.8324 71.0253 48.4348C80.4552 42.0372 91.0781 37.5644 102.287 35.2716C113.496 32.9789 125.072 32.9111 136.354 35.0722C147.636 37.2334 158.403 41.581 168.04 47.867L120.712 120.425L73.3847 192.983Z" fill="#447165"/>
<path d="M142.515 240.6C132.878 234.314 124.559 226.213 118.034 216.759C111.509 207.305 106.905 196.684 104.486 185.501C102.066 174.319 101.878 162.794 103.932 151.585C105.986 140.377 110.243 129.703 116.458 120.175C122.673 110.647 130.725 102.45 140.155 96.052C149.585 89.6544 160.208 85.1815 171.417 82.8888C182.626 80.596 194.202 80.5283 205.484 82.6894C216.766 84.8505 227.533 89.1982 237.17 95.4841L189.842 168.042L142.515 240.6Z" fill="#447165"/>
</svg>
