<svg width="303" height="300" viewBox="0 0 303 300" fill="none" xmlns="http://www.w3.org/2000/svg">
<path d="M173.274 10.2291C184.406 -4.14105 207.385 2.58885 209.006 20.6938L209.452 25.6783C210.65 39.0567 224.432 47.4749 236.881 42.432L241.798 40.4405C258.712 33.5888 275.214 51.1124 267.359 67.5851L265.746 70.9697C259.901 83.2285 267.712 97.6237 281.176 99.4047L285.479 99.9738C303.71 102.386 309.297 126.054 294.067 136.363L291.76 137.925C280.39 145.622 279.979 162.222 290.952 170.473L293.412 172.322C308.167 183.416 301.297 206.871 282.889 208.252L279.82 208.482C266.13 209.509 257.521 223.709 262.941 236.323L264.042 238.884C271.303 255.78 253.831 272.695 237.179 264.89L233.249 263.048C220.952 257.284 206.609 265.191 204.917 278.666L204.45 282.386C202.176 300.494 178.829 306.346 168.283 291.452L165.218 287.123C157.456 276.161 141.31 275.814 133.084 286.432L130.019 290.389C118.887 304.759 95.9086 298.029 94.2879 279.924L93.8417 274.939C92.6441 261.561 78.8617 253.143 66.4125 258.186L61.496 260.177C44.5816 267.029 28.0799 249.505 35.9342 233.033L37.548 229.648C43.3931 217.389 35.5816 202.994 22.1179 201.213L17.8151 200.644C-0.416749 198.232 -6.00304 174.564 9.22625 164.255L11.5341 162.692C22.9032 154.996 23.315 138.395 12.3416 130.145L9.88178 128.295C-4.87287 117.202 1.99644 93.7468 20.4046 92.3657L23.4735 92.1355C37.1642 91.1084 45.7731 76.9084 40.3522 64.2947L39.2518 61.7342C31.9905 44.8378 49.4624 27.9229 66.1148 35.7279L70.0448 37.5699C82.342 43.3336 96.6851 35.4269 98.3769 21.9517L98.844 18.2313C101.117 0.123986 124.465 -5.72859 135.011 9.16539L138.076 13.4946C145.838 24.4567 161.984 24.8038 170.21 14.1853L173.274 10.2291Z" fill="#F6CF47"/>
</svg>
