<svg width="385" height="382" viewBox="0 0 385 382" fill="none" xmlns="http://www.w3.org/2000/svg">
<path d="M213.707 51.2291C224.839 36.859 247.818 43.5889 249.438 61.6938L249.885 66.6783C251.082 80.0567 264.865 88.4749 277.314 83.432L282.23 81.4405C299.145 74.5888 315.646 92.1124 307.792 108.585L306.178 111.97C300.333 124.228 308.145 138.624 321.608 140.405L325.911 140.974C344.143 143.386 349.729 167.054 334.5 177.363L332.192 178.925C320.823 186.622 320.411 203.222 331.385 211.473L333.845 213.322C348.599 224.416 341.73 247.871 323.322 249.252L320.253 249.482C306.562 250.509 297.953 264.709 303.374 277.323L304.475 279.884C311.736 296.78 294.264 313.695 277.612 305.89L273.682 304.048C261.384 298.284 247.041 306.191 245.349 319.666L244.882 323.386C242.609 341.494 219.261 347.346 208.715 332.452L205.65 328.123C197.888 317.161 181.742 316.814 173.517 327.432L170.452 331.389C159.32 345.759 136.341 339.029 134.721 320.924L134.274 315.939C133.077 302.561 119.294 294.143 106.845 299.186L101.929 301.177C85.0143 308.029 68.5126 290.505 76.3669 274.033L77.9807 270.648C83.8258 258.389 76.0143 243.994 62.5506 242.213L58.2478 241.644C40.0159 239.232 34.4296 215.564 49.6589 205.255L51.9668 203.692C63.3359 195.996 63.7477 179.395 52.7743 171.145L50.3145 169.295C35.5598 158.202 42.4291 134.747 60.8373 133.366L63.9062 133.135C77.5968 132.108 86.2057 117.908 80.7849 105.295L79.6845 102.734C72.4231 85.8378 89.8951 68.9229 106.547 76.7279L110.477 78.5699C122.775 84.3336 137.118 76.4269 138.81 62.9517L139.277 59.2313C141.55 41.124 164.898 35.2714 175.444 50.1654L178.509 54.4946C186.271 65.4567 202.417 65.8038 210.642 55.1853L213.707 51.2291Z" fill="#F6CF47"/>
</svg>
