<svg width="365" height="539" viewBox="0 0 365 539" fill="none" xmlns="http://www.w3.org/2000/svg">
<ellipse rx="156.32" ry="69.6194" transform="matrix(0.994188 -0.107659 0.0873173 0.99618 172.245 158.517)" fill="#F1E3CE"/>
<ellipse rx="156.32" ry="69.6194" transform="matrix(0.994188 -0.107659 0.0873173 0.99618 178.324 227.872)" fill="#F1E3CE"/>
<ellipse rx="156.32" ry="69.6194" transform="matrix(0.994188 -0.107659 0.0873173 0.99618 185.772 312.839)" fill="#F1E3CE"/>
<ellipse rx="156.32" ry="69.6194" transform="matrix(0.994188 -0.107659 0.0873173 0.99618 191.85 382.192)" fill="#F1E3CE"/>
<ellipse rx="131.557" ry="58.5022" transform="matrix(0.994188 -0.107659 0.0873173 0.99618 177.342 81.8132)" fill="#F1E3CE"/>
<ellipse rx="131.557" ry="58.5022" transform="matrix(0.994188 -0.107659 0.0873173 0.99618 201.827 455.637)" fill="#F1E3CE"/>
<path d="M316.329 172.301C358.497 134.083 321.023 104.664 297.015 94.7318C359.782 17.9114 235.687 7.48698 165.794 11.8773C19.3733 40.3616 30.5345 90.3023 54.4176 111.712C-17.7507 153.923 10.3837 190.633 33.472 203.712C-8.5014 245.358 27.9271 274.563 51.388 283.96C0.448935 323.309 28.0183 353.693 48.1703 363.967C1.56687 411.442 48.7147 439.696 78.1141 447.889C47.6594 479.439 76.2311 503.574 94.3237 511.698C179.642 545.638 267.544 516.203 300.831 497.244C362.077 461.99 340.269 431.833 321.709 421.162C380.705 379.012 351.587 346.6 329.654 335.663C374.301 297.443 336.691 266.069 312.304 255.16C362.627 218.607 335.955 184.69 316.329 172.301Z" stroke="#F088B7" stroke-width="4"/>
</svg>
