<svg width="1265" height="919" viewBox="0 0 1265 919" fill="none" xmlns="http://www.w3.org/2000/svg">
<ellipse cx="362.363" cy="469.768" rx="421.317" ry="169.155" transform="rotate(-91.9612 362.363 469.768)" fill="#F1E3CE"/>
<ellipse cx="531.419" cy="463.979" rx="421.317" ry="169.155" transform="rotate(-91.9612 531.419 463.979)" fill="#F1E3CE"/>
<ellipse cx="738.534" cy="456.886" rx="421.317" ry="169.155" transform="rotate(-91.9612 738.534 456.886)" fill="#F1E3CE"/>
<ellipse cx="907.589" cy="451.098" rx="421.317" ry="169.155" transform="rotate(-91.9612 907.589 451.098)" fill="#F1E3CE"/>
<ellipse cx="177.392" cy="444.339" rx="354.574" ry="142.143" transform="rotate(-91.9612 177.392 444.339)" fill="#F1E3CE"/>
<ellipse cx="1087.22" cy="435.437" rx="354.574" ry="142.143" transform="rotate(-91.9612 1087.22 435.437)" fill="#F1E3CE"/>
<path d="M420.455 83.8704C334.958 -35.5122 257.28 60.9122 229.128 124.047C53.5451 -56.6963 7.21643 275.884 6 464.768C50.2086 863.405 173.172 840.969 229.128 779.921C319.214 980.701 412.983 910.539 448.607 850.361C542.446 969.743 619.429 876.102 646.19 814.358C732.939 957.534 811.277 887.929 839.603 835.229C946.788 967.969 1023.28 845.317 1048.13 767.398C1119.45 854.222 1182.81 780.964 1205.57 733.483C1302.33 508.91 1245.89 267.71 1205.57 175.181C1130.5 4.87334 1053.69 58.999 1024.67 107.35C932.503 -57.9486 848.987 15.5176 818.75 72.9131C733.669 -53.1482 651.23 43.3457 620.645 107.35C540.569 -33.7382 453.82 32.9101 420.455 83.8704Z" stroke="#F088B7" stroke-width="11"/>
</svg>
