<svg width="636" height="566" viewBox="0 0 636 566" fill="none" xmlns="http://www.w3.org/2000/svg">
<path d="M158.342 197.947C130.769 197.947 95.7197 192.602 70.5952 206.439C46.6322 219.636 20.0634 241.579 13.513 269.418C5.01832 305.52 -2.58113 366.408 41.5823 383.583C57.9961 389.966 81.9929 388.358 98.6646 385.705C116.907 382.803 129.217 375.232 144.543 366.717C154.891 360.968 149.85 389.234 149.85 395.494C149.85 435.843 149.652 478.298 166.833 515.91C178.066 540.501 200.557 555.89 226.982 558.368C252.982 560.805 269.328 556.35 291.14 542.328C330.054 517.312 351.525 472.761 351.525 427.22C351.525 414.526 348.328 407.01 345.274 396.32C344.998 395.354 342.323 390.813 343.623 390.423C347.765 389.18 354.881 394.692 358.012 396.556C368.853 403.009 379.858 406.905 391.86 410.708C425.714 421.437 463.124 432.649 499.184 426.748C515.591 424.063 532.576 406.798 542.468 394.433C557.62 375.492 560.068 347.542 550.016 325.203C543.8 311.39 534.265 303.857 521.474 296.662C516.786 294.025 514.617 294.417 519.587 292.18C529.445 287.744 539.883 282.374 548.954 276.494C585.202 253.001 602.165 221.119 597.309 177.898C593.389 143.012 567.295 106.662 538.811 87.5567C510.772 68.7498 481.966 66.3277 449.178 66.3277C427.308 66.3277 402.364 83.3829 388.911 99.9402C382.182 108.223 380.87 93.3463 378.769 88.6181C371.552 72.3803 358.163 55.7598 343.033 46.514C293.828 16.4442 233.93 -11.7847 180.75 23.1622C142.661 48.1918 124.783 90.473 119.068 133.907C117.843 143.214 108.169 189.844 120.129 195.824" stroke="#F088B7" stroke-width="14" stroke-linecap="round"/>
<path d="M91.2379 208.52C112.939 196.572 110.207 199.354 134.023 199.354C123.692 194.191 132.048 153.926 133.106 145.889C138.042 108.385 153.484 71.8764 186.383 50.2639C232.317 20.0878 284.053 44.463 326.554 70.4277C339.622 78.4113 351.187 92.7627 357.42 106.784C359.235 110.866 360.368 123.712 366.181 116.56C377.8 102.263 399.346 87.5365 418.235 87.5365C446.555 87.5365 471.437 89.6279 495.655 105.867C520.258 122.364 542.796 153.752 546.182 183.875C550.377 221.195 535.724 248.725 504.416 269.011C496.581 274.088 487.565 278.726 479.051 282.556C474.757 284.487 476.631 284.148 480.681 286.426C491.729 292.638 499.964 299.143 505.333 311.07C514.016 330.359 511.901 354.494 498.813 370.849C490.269 381.526 475.599 396.434 461.428 398.753C430.281 403.848 397.968 394.166 368.727 384.903C358.36 381.618 348.855 378.254 339.491 372.682C336.787 371.073 330.641 366.314 327.063 367.387C325.94 367.723 328.251 371.644 328.489 372.478C331.127 381.709 333.888 388.199 333.888 399.16C333.888 438.483 315.343 476.953 281.732 498.554C262.892 510.661 248.773 514.508 226.315 512.404C203.491 510.264 184.065 496.976 174.362 475.742C159.69 443.63 159.692 407.429 159.693 372.941L159.693 371.766C159.693 366.36 164.048 341.953 155.109 346.917C141.872 354.269 131.239 360.807 115.483 363.313C101.083 365.603 80.3555 366.992 66.1783 361.48C28.0325 346.65 34.5964 294.075 41.9336 262.901C47.5915 238.862 70.54 219.915 91.2379 208.52Z" fill="#F088B7"/>
<path d="M503.757 284.451C502.788 285.796 503.093 287.671 504.438 288.639C505.782 289.607 507.657 289.303 508.625 287.958C513.726 280.876 519.827 274.68 526.287 268.566C528.073 266.875 529.896 265.182 531.732 263.478C536.471 259.078 541.297 254.597 545.808 249.854C555.573 239.588 565.178 229.471 574.323 218.474C574.759 217.949 576.085 216.012 577.609 213.655C579.004 211.499 580.675 208.82 582.216 206.147L582.224 206.144L582.347 205.927C583.241 205.393 583.983 204.614 584.529 203.639C584.93 202.921 585.005 202.108 584.801 201.373C585.484 200.003 586.069 198.696 586.477 197.549C586.839 196.533 587.193 195.295 587.159 194.138C587.141 193.541 587.013 192.639 586.411 191.802C585.726 190.848 584.722 190.382 583.75 190.283C581.488 190.052 578.631 190.028 576.183 191.042C574.903 191.572 573.664 192.416 572.733 193.71C571.797 195.011 571.311 196.575 571.23 198.313C571.105 201.011 572.627 203.312 574.269 204.708C574.648 205.031 575.081 205.344 575.556 205.625C574.527 207.331 573.491 208.975 572.571 210.396C571.803 211.584 571.122 212.607 570.601 213.371C570.34 213.753 570.124 214.065 569.959 214.296C569.808 214.507 569.733 214.607 569.714 214.631C569.71 214.637 569.708 214.639 569.71 214.637C560.712 225.458 551.243 235.435 541.461 245.719C537.086 250.318 532.472 254.603 527.785 258.954C525.919 260.687 524.041 262.43 522.162 264.208C515.63 270.391 509.196 276.899 503.757 284.451Z" fill="#F6CF47" stroke="#F6CF47" stroke-width="6" stroke-linecap="round"/>
<path d="M504.602 283.492C503.196 284.37 502.769 286.221 503.646 287.626C504.524 289.031 506.374 289.459 507.78 288.582C515.183 283.959 523.176 280.535 531.47 277.323C533.764 276.434 536.092 275.558 538.437 274.676C544.488 272.399 550.652 270.079 556.624 267.398C569.549 261.595 582.27 255.869 594.899 249.154C595.501 248.834 597.461 247.543 599.765 245.939C601.872 244.472 604.434 242.625 606.872 240.735L606.881 240.735L607.077 240.58C608.106 240.425 609.089 239.985 609.962 239.29C610.606 238.777 610.983 238.053 611.073 237.295C612.224 236.285 613.26 235.298 614.072 234.391C614.792 233.587 615.588 232.576 615.995 231.492C616.204 230.933 616.428 230.05 616.188 229.047C615.915 227.905 615.161 227.093 614.3 226.634C612.293 225.563 609.659 224.459 607.009 224.47C605.624 224.476 604.158 224.788 602.806 225.633C601.446 226.483 600.404 227.746 599.671 229.324C598.534 231.773 599.071 234.479 600.062 236.394C600.29 236.835 600.572 237.29 600.906 237.729C599.307 238.918 597.726 240.048 596.336 241.015C595.176 241.823 594.158 242.512 593.387 243.022C593 243.277 592.682 243.483 592.442 243.635C592.223 243.773 592.115 243.837 592.088 243.852C592.082 243.856 592.08 243.857 592.082 243.856C579.656 250.463 567.115 256.111 554.166 261.924C548.376 264.524 542.482 266.742 536.497 268.994C534.113 269.891 531.715 270.793 529.303 271.728C520.915 274.976 512.497 278.563 504.602 283.492Z" fill="#F6CF47" stroke="#F6CF47" stroke-width="6" stroke-linecap="round"/>
<path d="M505.74 285.365C504.102 285.613 502.976 287.143 503.225 288.781C503.473 290.419 505.003 291.545 506.641 291.297C515.27 289.986 523.965 290.01 532.854 290.348C535.312 290.442 537.796 290.56 540.299 290.679C546.758 290.987 553.336 291.3 559.881 291.205C574.048 291 587.996 290.784 602.252 289.624C602.932 289.569 605.243 289.16 607.994 288.601C610.51 288.089 613.594 287.408 616.582 286.639L616.59 286.643L616.831 286.579C617.837 286.844 618.914 286.83 619.992 286.537C620.786 286.322 621.419 285.806 621.802 285.146C623.258 284.675 624.601 284.179 625.706 283.668C626.686 283.216 627.818 282.603 628.621 281.769C629.034 281.339 629.589 280.616 629.767 279.6C629.969 278.444 629.599 277.4 628.99 276.637C627.572 274.858 625.59 272.801 623.153 271.761C621.879 271.217 620.41 270.922 618.833 271.163C617.249 271.404 615.791 272.15 614.493 273.309C612.478 275.107 611.899 277.804 612.05 279.954C612.084 280.451 612.163 280.98 612.296 281.516C610.356 281.973 608.457 282.384 606.798 282.721C605.412 283.003 604.205 283.232 603.294 283.394C602.838 283.476 602.464 283.539 602.184 283.583C601.928 283.623 601.804 283.639 601.773 283.643C601.766 283.644 601.764 283.644 601.766 283.644C587.739 284.785 573.986 285 559.794 285.206C553.447 285.298 547.157 284.998 540.769 284.694C538.226 284.573 535.666 284.451 533.082 284.353C524.093 284.011 514.943 283.967 505.74 285.365Z" fill="#F6CF47" stroke="#F6CF47" stroke-width="6" stroke-linecap="round"/>
<path d="M501.724 285.131C501.229 286.712 502.11 288.395 503.691 288.89C505.272 289.385 506.955 288.504 507.45 286.923C509.66 279.86 512.919 273.229 516.505 266.543C517.493 264.7 518.512 262.843 519.539 260.97C522.197 256.126 524.913 251.177 527.297 246.109C532.444 235.167 537.508 224.376 541.96 212.996C542.184 212.423 542.742 210.47 543.339 208.162C543.877 206.085 544.494 203.529 545.015 200.999L545.024 200.992L545.076 200.722C545.667 200.006 546.065 199.136 546.25 198.167C546.393 197.419 546.245 196.683 545.885 196.075C546.056 194.832 546.17 193.659 546.19 192.646C546.208 191.717 546.164 190.549 545.79 189.539C545.597 189.016 545.206 188.229 544.389 187.645C543.458 186.979 542.387 186.867 541.475 187.073C539.556 187.507 537.147 188.283 535.354 189.837C534.412 190.654 533.58 191.736 533.145 193.129C532.708 194.531 532.743 196.017 533.17 197.514C533.851 199.907 535.848 201.434 537.636 202.144C537.923 202.258 538.232 202.362 538.558 202.449C538.216 203.945 537.859 205.389 537.53 206.659C537.229 207.824 536.955 208.831 536.74 209.585C536.632 209.963 536.541 210.27 536.471 210.498C536.417 210.675 536.386 210.767 536.375 210.8C536.37 210.816 536.369 210.818 536.373 210.81C532.004 221.975 527.025 232.591 521.868 243.555C519.568 248.443 516.992 253.139 514.368 257.921C513.32 259.83 512.265 261.753 511.217 263.707C507.584 270.482 504.108 277.514 501.724 285.131Z" fill="#F6CF47" stroke="#F6CF47" stroke-width="6" stroke-linecap="round"/>
<path d="M500.737 284.352C499.272 283.578 497.457 284.139 496.683 285.603C495.909 287.068 496.469 288.883 497.934 289.657C505.651 293.735 512.628 298.924 519.574 304.481C521.494 306.017 523.422 307.59 525.363 309.173C530.373 313.261 535.476 317.424 540.795 321.24C552.308 329.498 563.651 337.618 575.803 345.162C576.382 345.522 578.484 346.568 581.028 347.753C583.356 348.838 586.24 350.124 589.099 351.282L589.103 351.29L589.335 351.382C589.987 352.194 590.861 352.822 591.901 353.228C592.668 353.527 593.483 353.489 594.183 353.185C595.635 353.673 597.009 354.072 598.202 354.319C599.258 354.537 600.533 354.718 601.674 354.524C602.263 354.424 603.139 354.173 603.885 353.462C604.735 352.652 605.058 351.593 605.023 350.617C604.94 348.345 604.57 345.512 603.229 343.227C602.528 342.032 601.522 340.921 600.111 340.177C598.694 339.429 597.078 339.163 595.346 339.322C592.657 339.57 590.587 341.394 589.43 343.213C589.163 343.632 588.912 344.105 588.699 344.614C586.868 343.829 585.097 343.029 583.562 342.314C582.28 341.717 581.173 341.184 580.345 340.773C579.93 340.567 579.592 340.395 579.34 340.264C579.057 340.117 578.958 340.058 578.967 340.064C567.011 332.642 555.825 324.637 544.292 316.364C539.135 312.665 534.255 308.684 529.3 304.641C527.327 303.031 525.342 301.411 523.322 299.795C516.298 294.176 508.967 288.7 500.737 284.352Z" fill="#F6CF47" stroke="#F6CF47" stroke-width="6" stroke-linecap="round"/>
<path d="M501.803 285.058C500.74 283.786 498.848 283.617 497.577 284.68C496.306 285.743 496.137 287.635 497.2 288.906C502.798 295.602 507.29 303.047 511.614 310.82C512.809 312.97 513.998 315.155 515.194 317.356C518.283 323.037 521.429 328.822 524.907 334.368C532.435 346.371 539.858 358.182 548.248 369.766C548.648 370.319 550.196 372.083 552.102 374.143C553.846 376.029 556.028 378.312 558.236 380.466L558.236 380.475L558.416 380.648C558.712 381.646 559.283 382.558 560.092 383.328C560.689 383.895 561.458 384.169 562.22 384.153C563.379 385.154 564.5 386.044 565.511 386.724C566.405 387.326 567.516 387.976 568.646 388.229C569.229 388.36 570.135 388.459 571.095 388.084C572.188 387.656 572.888 386.798 573.225 385.882C574.009 383.747 574.74 380.985 574.364 378.362C574.167 376.991 573.657 375.582 572.633 374.359C571.605 373.13 570.21 372.271 568.546 371.763C565.964 370.974 563.358 371.878 561.598 373.123C561.192 373.41 560.78 373.752 560.391 374.143C558.993 372.723 557.657 371.312 556.507 370.069C555.547 369.031 554.725 368.118 554.114 367.424C553.808 367.077 553.56 366.79 553.376 366.573C553.171 366.329 553.101 366.238 553.107 366.247C544.852 354.849 537.531 343.205 529.99 331.18C526.618 325.803 523.61 320.271 520.555 314.652C519.338 312.415 518.114 310.164 516.857 307.904C512.484 300.043 507.773 292.199 501.803 285.058Z" fill="#F6CF47" stroke="#F6CF47" stroke-width="6" stroke-linecap="round"/>
<path d="M500.106 286.443C499.634 284.855 497.964 283.95 496.375 284.422C494.787 284.894 493.882 286.564 494.354 288.152C496.84 296.519 498.013 305.134 498.903 313.984C499.149 316.432 499.374 318.909 499.6 321.404C500.185 327.844 500.78 334.402 501.775 340.872C503.93 354.876 506.064 368.661 509.176 382.622C509.324 383.288 510.047 385.521 510.98 388.169C511.834 390.59 512.932 393.551 514.106 396.404L514.102 396.413L514.2 396.643C514.075 397.676 514.238 398.74 514.676 399.768C514.999 400.525 515.596 401.081 516.303 401.369C516.97 402.747 517.646 404.008 518.305 405.033C518.888 405.94 519.65 406.977 520.587 407.658C521.07 408.008 521.862 408.459 522.893 408.494C524.066 408.535 525.049 408.025 525.721 407.317C527.287 405.668 529.053 403.422 529.747 400.865C530.11 399.528 530.2 398.032 529.745 396.503C529.287 394.967 528.347 393.626 527.021 392.5C524.963 390.752 522.212 390.549 520.102 390.995C519.616 391.098 519.103 391.249 518.59 391.453C517.87 389.596 517.202 387.771 516.639 386.174C516.169 384.84 515.776 383.676 515.49 382.797C515.346 382.356 515.232 381.994 515.15 381.723C515.075 381.474 515.042 381.354 515.034 381.324C515.032 381.317 515.032 381.315 515.032 381.317C511.97 367.581 509.864 353.988 507.706 339.96C506.741 333.687 506.171 327.415 505.593 321.046C505.363 318.51 505.131 315.958 504.873 313.385C503.973 304.435 502.757 295.365 500.106 286.443Z" fill="#F6CF47" stroke="#F6CF47" stroke-width="6" stroke-linecap="round"/>
<path d="M499.784 282.433C498.15 282.16 496.604 283.265 496.332 284.899C496.06 286.533 497.164 288.079 498.798 288.351C506.098 289.568 513.114 291.883 520.231 294.513C522.192 295.238 524.172 295.992 526.168 296.752C531.332 298.717 536.607 300.725 541.956 302.389C553.502 305.98 564.888 309.51 576.773 312.353C577.37 312.496 579.382 312.78 581.75 313.053C583.882 313.3 586.498 313.559 589.076 313.727L589.084 313.735L589.358 313.749C590.149 314.236 591.066 314.511 592.051 314.561C592.811 314.599 593.52 314.351 594.072 313.91C595.327 313.909 596.505 313.86 597.511 313.74C598.433 313.631 599.584 313.426 600.534 312.917C601.025 312.654 601.75 312.157 602.217 311.268C602.748 310.254 602.712 309.178 602.382 308.303C601.688 306.462 600.587 304.183 598.801 302.621C597.863 301.8 596.676 301.126 595.236 300.887C593.788 300.646 592.321 300.886 590.897 301.514C588.62 302.519 587.383 304.707 586.925 306.576C586.852 306.876 586.792 307.196 586.751 307.531C585.222 307.398 583.742 307.244 582.439 307.093C581.244 306.955 580.209 306.822 579.432 306.713C579.043 306.658 578.726 306.611 578.491 306.573C578.308 306.543 578.213 306.525 578.178 306.519C578.162 306.516 578.16 306.516 578.169 306.518C566.508 303.729 555.308 300.259 543.738 296.66C538.579 295.055 533.574 293.15 528.476 291.209C526.441 290.435 524.391 289.655 522.311 288.886C515.101 286.22 507.657 283.745 499.784 282.433Z" fill="#F6CF47" stroke="#F6CF47" stroke-width="6" stroke-linecap="round"/>
<path d="M498.529 284.784C499.266 283.3 498.66 281.5 497.176 280.763C495.692 280.026 493.892 280.632 493.155 282.116C489.274 289.934 484.263 297.039 478.883 304.123C477.396 306.082 475.872 308.049 474.338 310.029C470.378 315.141 466.345 320.347 462.665 325.761C454.7 337.479 446.87 349.023 439.635 361.362C439.29 361.95 438.297 364.077 437.176 366.651C436.151 369.005 434.938 371.92 433.853 374.808L433.844 374.812L433.759 375.047C432.964 375.719 432.358 376.608 431.978 377.659C431.699 378.433 431.757 379.247 432.078 379.939C431.628 381.402 431.263 382.787 431.047 383.985C430.855 385.046 430.707 386.325 430.929 387.461C431.043 388.047 431.316 388.917 432.046 389.645C432.877 390.474 433.944 390.77 434.919 390.71C437.189 390.57 440.011 390.129 442.262 388.73C443.438 387.999 444.524 386.966 445.232 385.537C445.944 384.101 446.169 382.479 445.966 380.751C445.651 378.069 443.775 376.046 441.928 374.935C441.501 374.679 441.023 374.44 440.508 374.24C441.247 372.389 442.001 370.599 442.677 369.046C443.242 367.75 443.747 366.63 444.137 365.791C444.333 365.372 444.496 365.029 444.621 364.774C444.761 364.488 444.817 364.387 444.811 364.397C451.929 352.257 459.648 340.872 467.628 329.134C471.196 323.885 475.052 318.906 478.969 313.851C480.528 311.837 482.097 309.812 483.662 307.752C489.101 300.588 494.391 293.121 498.529 284.784Z" fill="#F6CF47" stroke="#F6CF47" stroke-width="6" stroke-linecap="round"/>
<path d="M497.851 285.868C499.095 284.774 499.216 282.878 498.122 281.634C497.027 280.39 495.132 280.269 493.888 281.363C487.335 287.129 480.006 291.807 472.344 296.326C470.226 297.576 468.071 298.819 465.901 300.071C460.3 303.302 454.596 306.593 449.14 310.21C437.331 318.038 425.711 325.757 414.342 334.437C413.8 334.851 412.076 336.443 410.064 338.401C408.223 340.191 405.996 342.43 403.898 344.692L403.889 344.693L403.721 344.877C402.731 345.198 401.833 345.792 401.084 346.62C400.532 347.231 400.278 348.007 400.313 348.769C399.342 349.952 398.48 351.095 397.826 352.123C397.247 353.032 396.625 354.159 396.4 355.295C396.285 355.881 396.208 356.789 396.608 357.739C397.063 358.821 397.938 359.5 398.863 359.813C401.017 360.544 403.796 361.204 406.409 360.762C407.775 360.531 409.17 359.985 410.367 358.931C411.57 357.871 412.393 356.456 412.859 354.779C413.583 352.178 412.613 349.595 411.324 347.867C411.027 347.469 410.674 347.066 410.273 346.687C411.658 345.254 413.034 343.882 414.248 342.701C415.261 341.715 416.153 340.87 416.832 340.242C417.172 339.927 417.452 339.672 417.665 339.483C417.858 339.311 417.954 339.231 417.978 339.211C417.983 339.206 417.985 339.205 417.983 339.206C429.169 330.666 440.625 323.053 452.455 315.211C457.746 311.704 463.2 308.557 468.74 305.361C470.945 304.089 473.165 302.808 475.393 301.494C483.14 296.924 490.863 292.016 497.851 285.868Z" fill="#F6CF47" stroke="#F6CF47" stroke-width="6" stroke-linecap="round"/>
<path d="M496.423 284.206C497.999 283.694 498.862 282.002 498.35 280.426C497.838 278.85 496.146 277.988 494.57 278.499C486.269 281.196 477.685 282.587 468.86 283.699C466.42 284.007 463.949 284.294 461.461 284.584C455.038 285.331 448.497 286.091 442.054 287.25C428.109 289.757 414.382 292.239 400.504 295.702C399.842 295.867 397.628 296.646 395.005 297.646C392.606 298.56 389.674 299.733 386.851 300.978L386.842 300.975L386.615 301.078C385.579 300.98 384.519 301.17 383.503 301.633C382.754 301.975 382.214 302.587 381.943 303.3C380.583 304.002 379.339 304.71 378.331 305.394C377.439 306 376.421 306.788 375.765 307.742C375.426 308.233 374.996 309.037 374.986 310.068C374.975 311.242 375.51 312.212 376.235 312.866C377.923 314.39 380.213 316.098 382.787 316.727C384.133 317.056 385.63 317.108 387.147 316.615C388.671 316.119 389.988 315.145 391.08 313.791C392.776 311.689 392.909 308.934 392.41 306.837C392.295 306.353 392.131 305.844 391.913 305.336C393.752 304.569 395.56 303.855 397.142 303.252C398.463 302.749 399.617 302.326 400.489 302.018C400.926 301.864 401.285 301.741 401.554 301.652C401.8 301.57 401.92 301.535 401.95 301.526C401.957 301.524 401.959 301.523 401.957 301.524C415.611 298.116 429.146 295.667 443.116 293.155C449.363 292.032 455.618 291.304 461.97 290.566C464.5 290.271 467.045 289.975 469.611 289.652C478.535 288.527 487.571 287.081 496.423 284.206Z" fill="#F6CF47" stroke="#F6CF47" stroke-width="6" stroke-linecap="round"/>
<path d="M500.424 283.783C500.655 282.143 499.513 280.625 497.872 280.394C496.231 280.163 494.714 281.306 494.483 282.947C493.451 290.275 491.314 297.347 488.864 304.528C488.189 306.507 487.486 308.505 486.776 310.52C484.942 315.732 483.068 321.056 481.539 326.446C478.241 338.078 475 349.55 472.458 361.503C472.33 362.104 472.097 364.122 471.883 366.496C471.691 368.633 471.498 371.256 471.395 373.837L471.387 373.844L471.38 374.119C470.914 374.922 470.662 375.846 470.637 376.831C470.618 377.593 470.884 378.295 471.338 378.836C471.371 380.091 471.45 381.266 471.595 382.269C471.727 383.189 471.961 384.334 472.494 385.27C472.77 385.754 473.284 386.467 474.185 386.911C475.212 387.417 476.287 387.353 477.154 387.001C478.976 386.261 481.226 385.103 482.743 383.278C483.54 382.319 484.184 381.116 484.387 379.671C484.591 378.217 484.314 376.756 483.65 375.348C482.588 373.098 480.37 371.916 478.489 371.506C478.188 371.44 477.866 371.388 477.53 371.355C477.625 369.824 477.742 368.341 477.859 367.034C477.967 365.836 478.074 364.798 478.164 364.019C478.208 363.628 478.248 363.31 478.28 363.074C478.305 362.891 478.32 362.795 478.326 362.76C478.328 362.744 478.329 362.742 478.327 362.751C480.82 351.023 484.006 339.739 487.312 328.082C488.786 322.885 490.564 317.833 492.375 312.687C493.098 310.633 493.826 308.564 494.543 306.466C497.025 299.191 499.312 291.686 500.424 283.783Z" fill="#F6CF47" stroke="#F6CF47" stroke-width="6" stroke-linecap="round"/>
<path d="M502.138 285.573C503.668 286.21 505.424 285.486 506.061 283.957C506.697 282.427 505.974 280.671 504.444 280.034C496.386 276.679 488.964 272.15 481.54 267.252C479.487 265.897 477.423 264.507 475.345 263.108C469.983 259.495 464.521 255.816 458.875 252.503C446.655 245.332 434.617 238.283 421.826 231.882C421.216 231.577 419.028 230.728 416.386 229.78C413.969 228.913 410.98 227.895 408.026 227.004L408.022 226.996L407.782 226.926C407.059 226.177 406.131 225.631 405.058 225.322C404.267 225.095 403.458 225.207 402.789 225.573C401.299 225.22 399.894 224.948 398.684 224.812C397.612 224.691 396.326 224.628 395.207 224.925C394.63 225.078 393.781 225.408 393.103 226.184C392.33 227.069 392.105 228.153 392.23 229.121C392.52 231.377 393.147 234.164 394.692 236.317C395.499 237.443 396.603 238.457 398.075 239.069C399.555 239.684 401.189 239.802 402.899 239.484C405.554 238.992 407.449 236.986 408.435 235.069C408.662 234.627 408.869 234.134 409.034 233.607C410.93 234.221 412.766 234.856 414.36 235.427C415.691 235.905 416.842 236.335 417.705 236.668C418.137 236.835 418.489 236.975 418.752 237.083C418.992 237.182 419.106 237.232 419.134 237.245C419.141 237.248 419.143 237.249 419.141 237.248C431.726 243.546 443.597 250.494 455.838 257.678C461.312 260.89 466.535 264.409 471.839 267.981C473.952 269.404 476.077 270.836 478.236 272.26C485.744 277.213 493.545 281.996 502.138 285.573Z" fill="#F6CF47" stroke="#F6CF47" stroke-width="6" stroke-linecap="round"/>
<path d="M501.012 284.968C502.186 286.137 504.086 286.132 505.254 284.958C506.423 283.783 506.418 281.884 505.244 280.715C499.057 274.559 493.903 267.556 488.887 260.211C487.499 258.18 486.116 256.112 484.723 254.03C481.128 248.655 477.466 243.182 473.496 237.977C464.902 226.712 456.43 215.63 447.016 204.861C446.567 204.348 444.864 202.733 442.777 200.855C440.869 199.137 438.487 197.063 436.092 195.12L436.09 195.111L435.895 194.955C435.509 193.988 434.857 193.132 433.981 192.44C433.335 191.929 432.544 191.727 431.786 191.812C430.541 190.922 429.343 190.138 428.275 189.553C427.329 189.035 426.163 188.49 425.015 188.341C424.423 188.264 423.512 188.248 422.59 188.71C421.54 189.236 420.921 190.154 420.67 191.097C420.084 193.295 419.609 196.112 420.223 198.689C420.544 200.037 421.181 201.393 422.313 202.518C423.449 203.648 424.916 204.375 426.62 204.729C429.264 205.279 431.776 204.14 433.415 202.74C433.793 202.416 434.171 202.038 434.524 201.613C436.045 202.899 437.505 204.182 438.763 205.315C439.814 206.261 440.717 207.095 441.389 207.73C441.725 208.048 441.999 208.311 442.201 208.511C442.386 208.693 442.472 208.783 442.494 208.805C442.499 208.81 442.5 208.812 442.499 208.81C451.761 219.405 460.116 230.332 468.725 241.617C472.575 246.663 476.076 251.897 479.632 257.212C481.048 259.329 482.473 261.459 483.932 263.595C489.005 271.022 494.414 278.403 501.012 284.968Z" fill="#F6CF47" stroke="#F6CF47" stroke-width="6" stroke-linecap="round"/>
<path d="M502.575 283.433C503.191 284.972 504.936 285.72 506.475 285.105C508.013 284.49 508.762 282.744 508.147 281.206C504.906 273.102 502.95 264.629 501.255 255.898C500.786 253.483 500.336 251.037 499.882 248.573C498.711 242.213 497.518 235.737 495.936 229.385C492.51 215.637 489.124 202.104 484.749 188.487C484.54 187.837 483.616 185.68 482.445 183.129C481.373 180.795 480.009 177.947 478.579 175.213L478.582 175.204L478.464 174.984C478.493 173.944 478.234 172.899 477.704 171.916C477.313 171.191 476.667 170.693 475.938 170.47C475.147 169.159 474.358 167.965 473.609 167.005C472.946 166.154 472.091 165.191 471.096 164.599C470.583 164.295 469.753 163.918 468.724 163.977C467.552 164.044 466.619 164.642 466.015 165.408C464.606 167.194 463.053 169.592 462.596 172.202C462.357 173.566 462.404 175.064 462.997 176.545C463.593 178.033 464.651 179.282 466.075 180.282C468.285 181.835 471.043 181.785 473.102 181.148C473.578 181.001 474.075 180.804 474.567 180.553C475.454 182.337 476.286 184.094 476.992 185.632C477.582 186.917 478.08 188.041 478.445 188.89C478.628 189.316 478.775 189.666 478.882 189.929C478.979 190.169 479.023 190.286 479.034 190.315C479.036 190.322 479.037 190.324 479.036 190.322C483.341 203.72 486.682 217.063 490.114 230.836C491.648 236.995 492.789 243.188 493.947 249.477C494.408 251.982 494.872 254.502 495.365 257.041C497.079 265.871 499.12 274.791 502.575 283.433Z" fill="#F6CF47" stroke="#F6CF47" stroke-width="6" stroke-linecap="round"/>
<path d="M503.262 287.398C504.915 287.519 506.353 286.279 506.475 284.626C506.597 282.974 505.356 281.536 503.703 281.414C496.323 280.87 489.125 279.206 481.797 277.237C479.778 276.695 477.738 276.125 475.68 275.551C470.358 274.066 464.921 272.549 459.442 271.381C447.617 268.86 435.956 266.387 423.861 264.642C423.252 264.555 421.223 264.456 418.84 264.4C416.695 264.35 414.066 264.331 411.483 264.399L411.475 264.392L411.2 264.403C410.368 263.991 409.43 263.801 408.445 263.841C407.684 263.872 407.001 264.184 406.491 264.674C405.241 264.79 404.074 264.946 403.082 265.157C402.174 265.35 401.047 265.66 400.148 266.253C399.683 266.561 399.006 267.121 398.623 268.05C398.186 269.108 398.321 270.176 398.729 271.017C399.588 272.787 400.893 274.955 402.815 276.348C403.824 277.079 405.068 277.642 406.523 277.749C407.987 277.856 409.427 277.483 410.787 276.727C412.962 275.518 413.994 273.227 414.279 271.323C414.325 271.018 414.355 270.694 414.366 270.356C415.9 270.349 417.388 270.368 418.7 270.398C419.902 270.426 420.945 270.465 421.728 270.502C422.121 270.521 422.441 270.539 422.678 270.556C422.863 270.568 422.96 270.577 422.995 270.58C423.011 270.582 423.013 270.582 423.004 270.581C434.871 272.292 446.342 274.723 458.192 277.249C463.476 278.376 468.634 279.815 473.889 281.281C475.986 281.867 478.098 282.456 480.24 283.032C487.664 285.026 495.303 286.811 503.262 287.398Z" fill="#F6CF47" stroke="#F6CF47" stroke-width="6" stroke-linecap="round"/>
<path d="M254.533 231.246C255.494 242.842 253.937 253.492 250.691 261.326C247.423 269.214 242.577 273.973 237.107 274.426C231.637 274.879 226.074 270.983 221.552 263.741C217.06 256.548 213.772 246.3 212.811 234.703C211.85 223.107 213.406 212.457 216.652 204.623C219.921 196.735 224.766 191.976 230.236 191.523C235.707 191.069 241.269 194.965 245.792 202.208C250.283 209.401 253.572 219.649 254.533 231.246Z" fill="#F3E3CB" stroke="black" stroke-width="2"/>
<ellipse cx="241.867" cy="233.107" rx="12.0788" ry="32.74" transform="rotate(-4.73749 241.867 233.107)" fill="black"/>
<path d="M233.717 191.188C238.76 190.451 248.212 185.968 245.683 173.929" stroke="black" stroke-width="2"/>
<path d="M239.049 193.935C244.091 193.199 253.543 188.715 251.014 176.677" stroke="black" stroke-width="2"/>
<path d="M339.703 223.749C340.664 235.346 339.108 245.996 335.862 253.83C332.593 261.718 327.748 266.477 322.277 266.93C316.807 267.383 311.245 263.487 306.722 256.245C302.23 249.052 298.942 238.804 297.981 227.207C297.02 215.611 298.576 204.961 301.823 197.127C305.091 189.239 309.936 184.48 315.407 184.027C320.877 183.573 326.44 187.469 330.962 194.712C335.454 201.905 338.742 212.153 339.703 223.749Z" fill="#F3E3CB" stroke="black" stroke-width="2"/>
<ellipse cx="328.883" cy="226.411" rx="12.0788" ry="32.74" transform="rotate(-4.73749 328.883 226.411)" fill="black"/>
<path d="M318.888 183.692C323.93 182.955 333.382 178.471 330.854 166.433" stroke="black" stroke-width="2"/>
<path d="M324.219 186.439C329.261 185.702 338.713 181.219 336.185 169.181" stroke="black" stroke-width="2"/>
<ellipse cx="214.5" cy="307" rx="15.5" ry="12" fill="#EA6524" fill-opacity="0.6"/>
<ellipse cx="375.5" cy="274" rx="15.5" ry="12" fill="#EA6524" fill-opacity="0.6"/>
</svg>
