<svg width="154" height="144" viewBox="0 0 154 144" fill="none" xmlns="http://www.w3.org/2000/svg">
<path d="M16.5679 52.0275C23.1134 48.4179 22.2893 49.2585 29.4726 49.2585C26.3567 47.6985 28.877 35.534 29.1961 33.1061C30.6849 21.7756 35.3426 10.7457 45.2655 4.21623C59.12 -4.90037 74.7248 2.4637 87.5438 10.308C91.4853 12.7199 94.9735 17.0557 96.8536 21.2917C97.401 22.5251 97.7428 26.4059 99.496 24.2453C103.001 19.926 109.499 15.4768 115.197 15.4768C123.739 15.4768 131.243 16.1087 138.548 21.0148C145.969 25.9987 152.767 35.4815 153.788 44.582C155.053 55.857 150.634 64.1741 141.19 70.3029C138.827 71.8367 136.108 73.2377 133.54 74.3948C132.245 74.9784 132.81 74.876 134.031 75.5639C137.364 77.4409 139.848 79.4062 141.467 83.0095C144.086 88.837 143.448 96.1285 139.501 101.069C136.923 104.295 132.499 108.799 128.224 109.5C118.83 111.039 109.084 108.114 100.264 105.315C97.1372 104.323 94.2703 103.307 91.4459 101.623C90.6303 101.137 88.7764 99.6992 87.6974 100.023C87.3586 100.125 88.0556 101.31 88.1276 101.562C88.9233 104.35 89.756 106.311 89.756 109.623C89.756 121.503 84.1624 133.125 74.0246 139.651C68.3421 143.309 64.0835 144.471 57.3099 143.835C50.4257 143.189 44.5664 139.174 41.6399 132.759C37.2142 123.057 37.2148 112.121 37.2154 101.701L37.2154 101.346C37.2154 99.7132 38.5287 92.3396 35.8328 93.8393C31.8402 96.0604 28.633 98.0356 23.8806 98.7927C19.5372 99.4846 13.2855 99.9041 9.00943 98.2389C-2.49609 93.7586 -0.516269 77.8748 1.69676 68.4569C3.40328 61.1944 10.325 55.4702 16.5679 52.0275Z" fill="#F088B7"/>
</svg>
