<svg width="240" height="241" viewBox="0 0 240 241" fill="none" xmlns="http://www.w3.org/2000/svg">
<path d="M117.118 4.18441C117.953 1.29447 122.047 1.29448 122.882 4.1844L134.221 43.4386C135.686 48.5079 142.019 50.1961 145.812 46.5281L175.017 18.2883C177.176 16.2006 180.723 18.2291 180.018 21.1487L170.389 61.0566C169.157 66.1601 173.774 70.7527 178.871 69.4947L218.271 59.7699C221.178 59.0525 223.227 62.5678 221.17 64.7434L192.995 94.5467C189.407 98.3423 191.09 104.589 196.099 106.069L235.204 117.623C238.071 118.47 238.071 122.53 235.204 123.377L196.099 134.931C191.09 136.411 189.407 142.658 192.995 146.453L221.17 176.257C223.227 178.432 221.178 181.947 218.271 181.23L178.871 171.505C173.774 170.247 169.157 174.84 170.389 179.943L180.018 219.851C180.723 222.771 177.176 224.799 175.017 222.712L145.812 194.472C142.019 190.804 135.686 192.492 134.221 197.561L122.882 236.816C122.047 239.706 117.953 239.706 117.118 236.816L105.779 197.561C104.314 192.492 97.981 190.804 94.1878 194.472L64.9834 222.712C62.8243 224.799 59.2772 222.771 59.9817 219.851L69.6115 179.943C70.843 174.84 66.2264 170.247 61.1294 171.505L21.7286 181.23C18.8219 181.947 16.773 178.432 18.8297 176.257L47.0046 146.453C50.5928 142.658 48.9104 136.411 43.9013 134.931L4.79563 123.377C1.92904 122.53 1.92905 118.47 4.79562 117.623L43.9013 106.069C48.9104 104.589 50.5928 98.3423 47.0046 94.5467L18.8297 64.7434C16.773 62.5678 18.8219 59.0525 21.7286 59.7699L61.1294 69.4947C66.2264 70.7527 70.843 66.1601 69.6115 61.0566L59.9817 21.1487C59.2772 18.2291 62.8243 16.2006 64.9834 18.2883L94.1878 46.5281C97.981 50.196 104.314 48.5079 105.779 43.4386L117.118 4.18441Z" stroke="#EA6524" stroke-width="4"/>
</svg>
