<svg width="198" height="131" viewBox="0 0 198 131" fill="none" xmlns="http://www.w3.org/2000/svg">
<path d="M195.978 129.86L60.6339 127.794L8 126.99L61.4353 75.3047C136.815 -1.54614 182.539 79.6537 195.978 129.86Z" fill="#F6CF47" stroke="#F6CF47"/>
<path d="M67.5 0L78.4846 22.0844L98.8688 7.44536L97.9373 31.9158L123.051 28.0758L110.417 49.3265L134.508 57.1651L113.065 70.3277L130.614 88.0493L105.275 90.1085L112.261 113.653L88.8308 104.137L83.6538 128.111L67.5 109.2L51.3462 128.111L46.1692 104.137L22.7392 113.653L29.725 90.1085L4.3864 88.0493L21.9347 70.3277L0.492149 57.1651L24.5828 49.3265L11.9486 28.0758L37.0627 31.9158L36.1312 7.44536L56.5154 22.0844L67.5 0Z" fill="#8EA1D2"/>
</svg>
