<svg width="949" height="372" viewBox="0 0 949 372" fill="none" xmlns="http://www.w3.org/2000/svg">
<circle cx="150.425" cy="183.5" r="84.4183" transform="rotate(-0.152543 150.425 183.5)" fill="#6DB4B8"/>
<circle cx="284.755" cy="183.142" r="84.4183" transform="rotate(-0.152543 284.755 183.142)" fill="#6DB4B8"/>
<circle cx="425.246" cy="182.768" r="84.4183" transform="rotate(-0.152543 425.246 182.768)" fill="#6DB4B8"/>
<circle cx="569.246" cy="183.68" r="84.4183" transform="rotate(-0.152543 569.246 183.68)" fill="#6DB4B8"/>
<circle cx="703.576" cy="183.322" r="84.4183" transform="rotate(-0.152543 703.576 183.322)" fill="#6DB4B8"/>
<circle cx="844.068" cy="182.948" r="84.4183" transform="rotate(-0.152543 844.068 182.948)" fill="#6DB4B8"/>
<path d="M537.384 112.764C519.9 97.4591 490.541 92.0297 461.613 89.4026C414.278 85.1039 365.526 86.9175 317.103 89.7876C277.315 92.1459 239.442 88.1411 199.774 89.6501C166.232 90.9261 136.675 96.6588 106.092 107.149C87.0343 113.687 68.8867 118.615 53.7972 128.657C40.0644 137.796 29.7848 156.444 23.9631 168.205C17.1676 181.933 11.7088 198.543 14.1018 212.426C15.4832 220.441 33.5636 231.81 41.6921 237.017C58.1103 247.535 83.6274 254.899 105.716 259.403C122.96 262.918 141.738 267.464 159.726 269.64C186.508 272.879 215.158 272.318 242.559 273.367C296.606 275.436 355.943 278.06 410.887 271.774C454.256 266.812 519.9 261.442 551.531 236.411C562.717 227.558 585.972 214.396 584.568 202.117" stroke="#6DB4B8" stroke-width="3" stroke-linecap="round"/>
</svg>
