<svg width="345" height="335" viewBox="0 0 345 335" fill="none" xmlns="http://www.w3.org/2000/svg">
<path d="M114.616 40.8023C134.635 -12.7368 210.365 -12.7368 230.384 40.8023C239.069 64.0292 260.797 79.8152 285.571 80.8978C342.676 83.393 366.078 155.416 321.346 191C301.939 206.438 293.64 231.98 300.266 255.876C315.539 310.957 254.273 355.47 206.607 323.923C185.928 310.237 159.072 310.237 138.393 323.923C90.7271 355.47 29.4606 310.957 44.7339 255.876C51.3599 231.98 43.0607 206.438 23.6545 191C-21.0778 155.416 2.3239 83.393 59.429 80.8978C84.2029 79.8152 105.931 64.0292 114.616 40.8023Z" fill="#6DB4B8"/>
</svg>
