<svg width="970" height="371" viewBox="0 0 970 371" fill="none" xmlns="http://www.w3.org/2000/svg">
<path d="M46.8886 153.234L890.874 132.619L938.979 276.584L14.9643 257.257L46.8886 153.234Z" fill="#FE026F"/>
<path d="M581.012 152.877C591.494 152.826 608.109 155.98 618.304 152.567C626.101 149.958 635.598 148.255 643.745 147.155C661.226 144.795 683.153 133.986 700.45 136.408C706.893 137.311 713.448 134.501 719.968 134.839C725.842 135.143 740.64 131.962 746.535 131.797C756.26 131.526 769.083 129.422 769.083 129.422C783.222 123.315 799.585 122.804 814.192 118.158C830.462 112.984 847.758 109.679 864.346 106.125C877.613 103.282 890.763 98.8825 904.362 100.787C909.465 101.502 908.664 107.513 910.806 111.648C913.113 116.1 915.919 121.339 917.896 125.92C919.864 130.482 917.496 135.215 919.246 139.51C927.27 159.2 933.174 179.605 942.609 198.601C945.919 205.262 948.442 212.789 950.81 220.158C955.428 234.529 936.266 230.305 926.302 231.726C913.715 233.52 899.982 243.464 887.678 247.955C875.385 252.442 860.773 256.236 847.95 254.44C829.317 251.831 810.684 249.221 792.051 246.612" stroke="#FE026F" stroke-width="3" stroke-linecap="round"/>
</svg>
