<svg width="910" height="187" viewBox="0 0 910 187" fill="none" xmlns="http://www.w3.org/2000/svg">
<ellipse cx="447.36" cy="89.8909" rx="442.863" ry="58.567" transform="rotate(-0.320084 447.36 89.8909)" fill="#FE9400"/>
<path d="M902.756 63.0633C902.992 66.2852 900.76 70.0149 895.238 74.1861C889.792 78.2997 881.529 82.5446 870.658 86.8385C848.939 95.418 817.156 104.061 777.61 112.269C698.539 128.681 588.667 143.305 466.745 152.241C344.824 161.177 233.994 162.73 153.375 158.023C113.054 155.669 80.3514 151.752 57.613 146.431C46.2328 143.768 37.439 140.773 31.4515 137.498C25.3801 134.176 22.6276 130.812 22.3914 127.59C22.1553 124.368 24.3878 120.638 29.9101 116.467C35.356 112.354 43.6191 108.109 54.4894 103.815C76.209 95.2352 107.991 86.5921 147.538 78.3842C226.609 61.9727 336.481 47.3486 458.402 38.4123C580.324 29.476 691.154 27.9237 771.773 32.6306C812.093 34.9847 844.796 38.9013 867.535 44.2223C878.915 46.8853 887.709 49.88 893.696 53.1556C899.768 56.4771 902.52 59.8414 902.756 63.0633Z" stroke="#FE9400" stroke-width="3"/>
</svg>
