<svg width="135" height="142" viewBox="0 0 135 142" fill="none" xmlns="http://www.w3.org/2000/svg">
<path d="M37.9827 32.144C38.0409 17.2799 56.7301 10.7192 66.0664 22.2855C70.9373 28.3198 79.4685 29.9252 86.1996 26.074C99.1014 18.6923 114.128 31.5972 108.779 45.4659C105.989 52.7014 108.864 60.8923 115.565 64.796C128.408 72.2784 124.746 91.7441 110.061 94.0464C102.399 95.2476 96.7435 101.833 96.7132 109.588C96.6551 124.452 77.9659 131.013 68.6296 119.447C63.7587 113.412 55.2274 111.807 48.4964 115.658C35.5946 123.04 20.5683 110.135 25.9168 96.2662C28.7072 89.0307 25.8319 80.8398 19.1311 76.9361C6.28748 69.4536 9.95035 49.988 24.6352 47.6857C32.2965 46.4845 37.9524 39.8989 37.9827 32.144Z" fill="#FE9400"/>
</svg>
