<svg width="133" height="131" viewBox="0 0 133 131" fill="none" xmlns="http://www.w3.org/2000/svg">
<path d="M45.1955 25.3687C43.9391 15.556 57.3336 11.4625 61.7772 20.3012C64.8369 26.3872 73.3555 26.8346 77.0359 21.1026C82.381 12.7781 95.273 18.2521 92.9956 27.8793C91.4275 34.5081 97.6656 40.3266 104.169 38.3013C113.615 35.3601 119.972 47.8403 112.039 53.7512C106.577 57.8212 107.616 66.2882 113.9 68.9173C123.026 72.7356 119.874 86.3823 109.997 85.8112C103.197 85.418 98.5501 92.5717 101.674 98.625C106.211 107.416 95.024 115.844 87.8253 109.058C82.8686 104.386 74.7107 106.879 73.2127 113.524C71.0372 123.175 57.0504 122.44 55.8978 112.614C55.1041 105.849 47.2522 102.515 41.8333 106.643C33.9635 112.637 23.7212 103.084 29.1539 94.8161C32.8947 89.1233 29.0228 81.5222 22.2186 81.2009C12.3368 80.7342 10.6314 66.8324 20.1075 63.9911C26.6323 62.0347 28.5522 53.7232 23.5464 49.1033C16.2764 42.3939 23.906 30.6483 32.9914 34.5629C39.2473 37.2583 46.0606 32.1254 45.1955 25.3687Z" fill="#FD6F61"/>
</svg>
