<svg width="146" height="145" viewBox="0 0 146 145" fill="none" xmlns="http://www.w3.org/2000/svg">
<path d="M49.3972 27.5315C48.0116 16.7096 62.7837 12.1952 67.6843 21.9429V21.9429C71.0586 28.6548 80.4534 29.1482 84.5123 22.8267V22.8267C90.407 13.646 104.625 19.6831 102.113 30.3003V30.3003C100.384 37.6109 107.264 44.0277 114.436 41.7942V41.7942C124.853 38.5504 131.864 52.3142 123.115 58.833V58.833C117.091 63.3216 118.237 72.6593 125.167 75.5588V75.5588C135.232 79.7698 131.756 94.8201 120.864 94.1903V94.1903C113.364 93.7566 108.239 101.646 111.684 108.322V108.322C116.687 118.017 104.35 127.312 96.4113 119.828V119.828C90.9448 114.675 81.9479 117.424 80.2958 124.753V124.753C77.8965 135.396 62.4713 134.586 61.2001 123.75V123.75C60.3249 116.289 51.6655 112.612 45.6893 117.164V117.164C37.01 123.775 25.7144 113.239 31.7058 104.121V104.121C35.8313 97.8429 31.5613 89.4601 24.0572 89.1058V89.1058C13.1591 88.5911 11.2784 73.2595 21.729 70.126V70.126C28.9249 67.9684 31.0422 58.8021 25.5216 53.7071V53.7071C17.504 46.3077 25.9182 33.3541 35.938 37.6713V37.6713C42.8373 40.6439 50.3512 34.9831 49.3972 27.5315V27.5315Z" fill="#E3B0E9"/>
</svg>
