<svg width="165" height="76" viewBox="0 0 165 76" fill="none" xmlns="http://www.w3.org/2000/svg">
<path d="M3 20.5C20.692 6.26007 36.4636 4.75 59.3889 4.75C72.5416 4.75 78.4132 8.09951 89.1389 15.25C100.115 22.5675 119.884 19.1576 132.111 18.75C144.184 18.3476 152.001 6.41623 162.25 3" stroke="#FEF8E2" stroke-width="5" stroke-linecap="round"/>
<path d="M3 73C20.692 58.7601 36.4636 57.25 59.3889 57.25C72.5416 57.25 78.4132 60.5995 89.1389 67.75C100.115 75.0675 119.884 71.6576 132.111 71.25C144.184 70.8476 152.001 58.9162 162.25 55.5" stroke="#FEF8E2" stroke-width="5" stroke-linecap="round"/>
<path d="M3 46.75C20.692 32.5101 36.4636 31 59.3889 31C72.5416 31 78.4132 34.3495 89.1389 41.5C100.115 48.8175 119.884 45.4076 132.111 45C144.184 44.5976 152.001 32.6662 162.25 29.25" stroke="#FEF8E2" stroke-width="5" stroke-linecap="round"/>
</svg>
