<svg width="92" height="44" viewBox="0 0 92 44" fill="none" xmlns="http://www.w3.org/2000/svg">
<path d="M3 12.499C12.6033 4.76957 21.1641 3.9499 33.608 3.9499C40.7473 3.9499 43.9344 5.76802 49.7563 9.64932C55.7142 13.6212 66.4448 11.7704 73.0817 11.5491C79.6347 11.3307 83.8781 4.85433 89.4411 3" stroke="#FEF8E2" stroke-width="5" stroke-linecap="round"/>
<path d="M3 40.9956C12.6033 33.2662 21.1641 32.4465 33.608 32.4465C40.7473 32.4465 43.9344 34.2646 49.7563 38.1459C55.7142 42.1178 66.4448 40.2669 73.0817 40.0457C79.6347 39.8273 83.8781 33.3509 89.4411 31.4966" stroke="#FEF8E2" stroke-width="5" stroke-linecap="round"/>
<path d="M3 26.7471C12.6033 19.0176 21.1641 18.1979 33.608 18.1979C40.7473 18.1979 43.9344 20.0161 49.7563 23.8974C55.7142 27.8693 66.4448 26.0184 73.0817 25.7972C79.6347 25.5787 83.8781 19.1024 89.4411 17.248" stroke="#FEF8E2" stroke-width="5" stroke-linecap="round"/>
</svg>
