<svg width="226" height="225" viewBox="0 0 226 225" fill="none" xmlns="http://www.w3.org/2000/svg">
<path d="M113 0L116.537 89.535L146.307 5.02027L123.296 91.62L176.655 19.635L129.141 95.6047L201.347 42.5457L133.551 101.135L218.189 71.7165L136.135 107.72L225.684 104.555L136.664 114.773L223.167 138.145L135.09 121.67L210.861 169.5L131.553 127.795L189.86 195.835L126.368 132.607L162.029 214.809L119.995 135.676L129.842 224.738L113 136.73L96.1582 224.738L106.005 135.676L63.9711 214.809L99.6324 132.607L36.1405 195.835L94.4471 127.795L15.1391 169.5L90.9104 121.67L2.83315 138.145L89.3364 114.773L0.315971 104.555L89.865 107.72L7.81126 71.7165L92.4492 101.135L24.653 42.5457L96.8595 95.6047L49.3448 19.635L102.704 91.62L79.6927 5.02027L109.463 89.535L113 0Z" fill="#FE9400"/>
</svg>
