<svg width="314" height="322" viewBox="0 0 314 322" fill="none" xmlns="http://www.w3.org/2000/svg">
<path d="M85.954 118.545C195.584 -2.05978 229.387 7.89664 238.915 164.72" stroke="#EA6524" stroke-width="10"/>
<path d="M158.632 80.6449C173.265 72.7517 191.526 78.2643 199.348 92.9358L215.987 124.148C217.822 127.591 220.312 130.643 223.317 133.133L248.526 154.027C262.661 165.741 263.053 187.29 249.355 199.511L227.859 218.689C224.674 221.531 222.131 225.02 220.402 228.922L208.068 256.763C201.066 272.567 182.192 279.199 166.843 271.25L134.169 254.329C130.88 252.626 127.304 251.546 123.621 251.145L87.0422 247.161C69.8585 245.289 57.8074 229.321 60.7196 212.283L65.85 182.267C66.5692 178.06 66.3822 173.747 65.3014 169.617L58.0077 141.749C53.3597 123.989 65.6097 106.257 83.865 104.32L116.425 100.866C120.305 100.454 124.068 99.2893 127.502 97.4368L158.632 80.6449Z" fill="#347263"/>
<circle cx="97.9807" cy="140.94" r="17.9856" transform="rotate(16.7976 97.9807 140.94)" fill="#F088B7"/>
<circle cx="232.416" cy="176.416" r="17.9856" transform="rotate(16.7976 232.416 176.416)" fill="#F088B7"/>
<circle cx="173.396" cy="177.687" r="17.9856" transform="rotate(16.7976 173.396 177.687)" fill="#F088B7"/>
<circle cx="176.434" cy="228.412" r="17.9856" transform="rotate(16.7976 176.434 228.412)" fill="#F088B7"/>
<circle cx="161.383" cy="127.748" r="17.9856" transform="rotate(16.7976 161.383 127.748)" fill="#F088B7"/>
<circle cx="114.482" cy="190.486" r="17.9856" transform="rotate(16.7976 114.482 190.486)" fill="#F088B7"/>
</svg>
